<?xml version="1.0" standalone="yes"?>
<svg xmlns="http://www.w3.org/2000/svg" width="2048" height="2048">
<path style="fill:#010101; stroke:none;" d="M0 0L0 979L1 979C1 897.578 17.9357 812.808 41.2801 735C137.275 415.044 384.632 157.456 702 51.6666C789.78 22.4065 886.141 1 979 1L953 0L895 0L695 0L0 0z"/>
<path style="fill:#ffffff; stroke:none;" d="M299 1749L300 1749L435 1614L469 1580C471.986 1577.01 479.791 1571.64 479.793 1567C479.795 1561.98 470.323 1554.37 466.996 1551C454.46 1538.31 442.732 1524.8 431.424 1511C391.892 1462.77 358.417 1410.13 331.258 1354C248.767 1183.51 233.859 980.737 290.025 800C319.855 704.011 367.691 614.758 431.424 537C484.323 472.46 548.145 416.555 619 372.425C863.823 219.947 1185.57 218.322 1430 373.053C1502.89 419.198 1568.27 476.594 1622.2 544C1683.11 620.139 1730.12 707.516 1758.28 801C1812.92 982.429 1799.53 1182.9 1716.74 1354C1689.58 1410.13 1656.11 1462.77 1616.58 1511C1605.27 1524.8 1593.54 1538.31 1581 1551C1577.68 1554.37 1568.2 1561.98 1568.21 1567C1568.21 1571.64 1576.01 1577.01 1579 1580L1613 1614L1748 1749C1768.85 1734.31 1786.51 1709.3 1803.13 1690C1852.25 1632.94 1893.55 1570.12 1929.31 1504C2120.47 1150.54 2075.13 702.145 1827.79 388C1768.12 312.22 1697.44 245.508 1619 189.427C1368.56 10.3846 1042.93 -44.856 747 37.4244C642.063 66.6007 542.537 113.308 452 173.667C304.037 272.308 185.154 410.199 105.753 569C18.1449 744.216 -14.9501 943.864 5.83411 1138C30.3499 1366.99 136.329 1586.22 299 1749z"/>
<path style="fill:#010101; stroke:none;" d="M1069 0L1069 1C1161.86 1 1258.22 22.4065 1346 51.6666C1663.37 157.455 1910.73 415.044 2006.72 735C2030.06 812.808 2047 897.578 2047 979L2048 979L2048 0L1069 0M300 1749L299 1749C286.989 1731.95 269.957 1717.68 256.155 1702C229.06 1671.22 203.424 1638.92 180.344 1605C101.967 1489.82 46.7435 1360.69 19.3997 1224C9.26754 1173.35 1 1120.7 1 1069L0 1069L0 2048L2048 2048L2048 1069L2047 1069C2047 1120.7 2038.73 1173.35 2028.6 1224C2001.26 1360.69 1946.03 1489.82 1867.66 1605C1844.58 1638.92 1818.94 1671.22 1791.84 1702C1778.04 1717.68 1761.01 1731.95 1749 1749L1614 1614L1580 1580C1577.06 1577.06 1569.06 1571.55 1569.06 1567C1569.05 1561.96 1578.67 1554.34 1582 1551C1594.53 1538.4 1606.18 1524.79 1617.39 1511C1656.67 1462.66 1691.65 1409.72 1717.69 1353C1802.91 1167.42 1814.96 956.898 1746.31 764C1714.16 673.684 1664.14 590.237 1601.28 518C1558.78 469.156 1509.55 425.786 1456 389.344C1215.16 225.45 894.634 213.931 642 358.15C582.308 392.226 526.04 434.768 478.015 484C391.253 572.941 328.105 679.815 290.344 798C232.631 978.63 248.778 1184.54 331.258 1355C358.254 1410.79 391.527 1462.9 430.611 1511C441.815 1524.79 453.469 1538.4 465.999 1551C469.326 1554.34 478.953 1561.96 478.944 1567C478.937 1571.55 470.944 1577.06 468 1580L434 1614L345 1703C330.32 1717.68 311.951 1732.03 300 1749z"/>
<path style="fill:#ffffff; stroke:none;" d="M1023 384C1012.07 431.256 993.423 477.67 979.026 524C955.189 600.704 932.045 677.792 906.667 754C889.234 806.347 873.348 859.312 856.974 912C840.757 964.185 823.624 1013.86 836.654 1069C841.974 1091.51 851.525 1112.79 864.333 1132C931.512 1232.77 1080.77 1244 1163.96 1157C1204.25 1114.87 1222.46 1054.44 1214.72 997C1209.8 960.529 1194.9 924.992 1184.03 890C1150.53 782.218 1116.69 674.513 1082.34 567C1068.33 523.129 1053.6 479.255 1040.86 435C1037.48 423.252 1033.24 411.75 1029.86 400C1028.42 395.015 1027.26 387.202 1023 384z"/>
</svg>
